{"glyphs":{":":{"x_min":0,"x_max":265,"ha":265,"o":"m 60 0 l 60 145 l 205 145 l 205 0 z m 60 392 l 60 536 l 205 536 l 205 392 z"},"$":{"x_min":0,"x_max":624,"ha":624,"o":"m 289 -78 l 289 0 q 153 12 84 36 l 84 175 l 151 175 l 151 166 q 153 146 153 136 q 153 61 289 50 l 289 316 l 263 335 q 167 405 136 446 q 104 487 104 545 q 104 622 159 671 q 213 720 304 727 l 304 801 l 350 801 l 350 723 q 460 712 518 690 l 518 554 l 451 554 l 451 563 l 449 597 q 445 669 350 679 l 350 428 l 404 392 q 483 340 511 300 q 540 259 540 200 q 540 115 484 61 q 428 6 334 0 l 334 -78 z m 334 53 q 417 77 417 168 q 417 206 402 228 q 387 250 334 289 z m 301 457 l 301 676 q 227 644 227 568 q 227 516 301 457 z"},"?":{"x_min":0,"x_max":505,"ha":505,"o":"m 138 0 l 138 121 l 283 121 l 283 0 z m 138 205 l 138 213 q 138 293 213 358 l 244 385 q 321 452 321 546 q 321 614 287 655 q 253 696 198 696 q 154 696 127 676 q 101 655 101 623 l 100 584 l 100 575 l 33 575 l 33 710 q 122 741 229 741 q 339 741 406 697 q 473 652 473 579 q 473 508 396 452 q 363 428 352 418 l 330 399 q 285 361 285 271 l 283 214 l 283 205 z"},"<":{"x_min":0,"x_max":795,"ha":795,"o":"m 687 0 l 108 289 l 687 578 l 687 498 l 271 290 l 271 289 l 687 81 z"},"'":{"x_min":0,"x_max":253,"ha":253,"o":"m 103 470 l 48 771 l 205 771 l 151 470 z"},"=":{"x_min":0,"x_max":795,"ha":795,"o":"m 108 163 l 108 235 l 687 235 l 687 163 z m 108 343 l 108 416 l 687 416 l 687 343 z"},"a":{"x_min":0,"x_max":556,"ha":556,"o":"m 352 62 q 275 -12 191 -12 q 120 -12 73 32 q 26 76 26 144 q 26 319 308 319 l 332 319 l 332 384 q 332 453 315 478 q 297 503 250 503 q 153 503 153 438 l 152 407 l 151 397 l 73 397 l 73 506 q 166 548 267 548 q 477 548 477 386 l 477 150 q 477 88 486 65 q 495 42 520 42 q 527 42 537 45 l 543 0 q 505 -12 469 -12 q 390 -12 352 62 z m 332 98 l 332 275 l 313 275 q 168 275 168 160 q 168 65 253 65 q 297 65 332 98 z"},"L":{"x_min":0,"x_max":584,"ha":584,"o":"m 21 0 l 21 45 l 30 46 q 77 49 87 56 q 97 63 97 93 l 99 142 l 99 582 l 97 629 q 97 660 87 667 q 78 673 30 677 l 21 678 l 21 723 l 328 723 l 328 678 l 319 677 q 271 673 262 667 q 252 660 252 629 l 250 582 l 250 142 l 252 99 q 254 68 262 60 q 271 52 303 52 l 347 51 l 407 51 l 449 53 q 485 53 493 61 q 501 68 501 101 l 502 160 l 503 168 l 575 168 l 575 0 z"},"3":{"x_min":0,"x_max":624,"ha":624,"o":"m 80 8 l 80 145 l 146 145 l 146 136 q 148 107 148 104 q 148 27 261 27 q 324 27 363 71 q 403 115 403 186 q 403 361 195 361 l 146 361 l 146 406 l 188 406 q 382 406 382 554 q 382 617 348 656 q 314 696 259 696 q 160 696 156 628 l 154 584 l 154 575 l 84 575 l 84 709 q 181 741 285 741 q 527 741 527 571 q 527 437 365 389 q 552 350 552 192 q 552 95 478 38 q 404 -18 277 -18 q 159 -18 80 8 z"},";":{"x_min":0,"x_max":265,"ha":265,"o":"m 60 -145 l 60 -100 q 116 -91 116 -19 q 116 -13 114 0 l 60 0 l 60 145 l 205 145 l 205 38 q 205 -125 60 -145 z m 60 392 l 60 536 l 205 536 l 205 392 z"},"J":{"x_min":0,"x_max":452,"ha":452,"o":"m -6 -129 l -6 0 l 66 0 l 67 -9 q 68 -24 69 -37 q 71 -97 122 -97 q 168 -97 185 -63 q 202 -29 202 62 l 202 582 l 200 629 q 200 660 190 667 q 181 673 133 677 l 124 678 l 124 723 l 431 723 l 431 678 l 422 677 q 374 673 365 667 q 355 660 355 629 l 353 582 l 353 113 q 353 -26 298 -85 q 243 -145 113 -145 q 62 -145 -6 -129 z"},"V":{"x_min":0,"x_max":753,"ha":753,"o":"m 356 -9 l 101 583 l 79 633 q 67 660 59 667 q 51 674 30 676 l 9 677 l 0 678 l 0 723 l 313 723 l 313 678 l 304 677 q 285 676 279 676 q 248 676 248 656 q 248 642 272 583 l 434 202 l 590 582 q 595 594 602 616 q 610 641 613 650 q 615 656 615 660 q 615 677 584 677 l 564 677 q 561 677 557 677 l 548 678 l 548 723 l 753 723 l 753 678 l 744 677 q 730 676 723 676 q 702 675 694 669 q 687 664 678 642 l 651 583 l 405 -9 z"},"\"":{"x_min":0,"x_max":461,"ha":461,"o":"m 98 482 l 50 771 l 194 771 l 146 482 z m 315 482 l 267 771 l 411 771 l 363 482 z"},"7":{"x_min":0,"x_max":624,"ha":624,"o":"m 132 0 q 145 104 189 178 q 233 251 432 504 l 509 603 l 100 603 l 100 723 l 594 723 l 594 631 q 302 275 289 0 z"},"S":{"x_min":0,"x_max":556,"ha":556,"o":"m 49 9 l 49 160 l 121 160 l 122 148 l 124 116 q 125 79 162 54 q 198 30 252 30 q 310 30 346 66 q 381 102 381 160 q 381 205 360 232 q 339 260 279 293 l 231 319 q 50 419 50 538 q 50 629 115 685 q 181 741 288 741 q 374 741 483 709 l 483 563 l 411 563 l 410 572 l 409 605 q 407 644 376 668 q 346 693 299 693 q 253 693 221 659 q 188 626 188 577 q 188 540 210 514 q 231 489 291 455 l 339 426 q 446 365 485 317 q 525 269 525 199 q 525 101 451 41 q 377 -18 255 -18 q 164 -18 49 9 z"},"}":{"x_min":0,"x_max":366,"ha":366,"o":"m 308 291 l 290 291 q 220 291 220 221 q 220 208 225 188 l 233 152 l 245 100 q 259 40 259 7 q 259 -57 210 -101 q 161 -145 89 -145 l 52 -145 l 52 -100 q 124 -89 124 -21 q 124 -5 120 12 l 116 33 l 110 67 q 101 119 101 155 q 101 269 209 313 q 102 359 102 471 q 102 513 111 564 l 118 599 l 122 619 q 125 644 125 654 q 125 714 52 726 l 52 771 l 91 771 q 164 771 212 729 q 261 688 261 625 q 261 590 247 530 l 235 479 l 226 442 q 222 422 222 402 q 222 336 290 336 l 308 336 z"},"Z":{"x_min":0,"x_max":639,"ha":639,"o":"m 44 0 l 44 54 l 414 668 l 212 668 q 168 668 156 661 q 145 654 145 627 q 145 590 144 580 l 144 572 l 71 572 l 71 723 l 579 723 l 579 668 l 212 54 l 413 54 q 479 54 492 60 q 505 66 505 97 l 507 137 l 508 147 l 580 147 l 580 0 z"},"x":{"x_min":0,"x_max":608,"ha":608,"o":"m 237 257 l 136 397 l 95 448 q 74 475 62 482 q 50 488 18 490 l 9 491 l 9 536 l 310 536 l 310 491 l 301 491 l 277 490 q 248 490 248 476 q 248 472 252 466 l 271 434 q 286 408 292 398 l 339 333 l 394 399 q 447 462 447 478 q 447 491 404 491 l 395 491 l 395 536 l 600 536 l 600 491 l 590 490 l 569 490 q 542 490 516 460 l 461 399 l 370 289 l 477 141 l 520 86 q 541 61 553 54 q 566 48 600 46 l 608 45 l 608 0 l 310 0 l 310 45 l 319 45 l 344 46 q 372 46 372 60 q 372 68 347 104 l 322 141 l 271 211 l 209 142 q 153 77 153 60 q 153 46 178 46 l 193 45 l 202 45 l 202 0 l 0 0 l 0 45 l 6 46 l 29 47 q 58 48 97 93 l 141 141 z"},")":{"x_min":0,"x_max":327,"ha":327,"o":"m 36 732 l 36 777 q 154 713 226 586 q 297 459 297 312 q 297 168 225 40 q 153 -87 36 -150 l 36 -105 q 98 -49 125 49 q 152 147 152 313 q 152 480 125 578 q 98 676 36 732 z"},"&":{"x_min":0,"x_max":765,"ha":765,"o":"m 521 0 l 484 41 q 400 -18 299 -18 q 185 -18 106 49 q 28 116 28 214 q 28 365 214 434 q 158 525 158 583 q 158 652 212 696 q 267 741 351 741 q 438 741 491 700 q 544 659 544 591 q 544 474 377 418 q 473 262 553 166 q 587 225 587 298 q 587 332 579 344 q 571 355 547 356 l 526 358 l 517 358 l 517 404 l 752 404 l 752 358 l 743 358 l 722 357 q 698 357 690 347 q 683 337 679 302 q 670 225 583 130 l 612 95 q 637 64 654 57 q 670 49 722 46 l 731 45 l 731 0 z m 457 77 q 348 201 238 395 q 166 336 166 245 q 166 159 219 103 q 272 47 354 47 q 406 47 457 77 z m 355 456 q 425 519 425 598 q 425 696 362 696 q 295 696 295 612 q 295 551 355 456 z"},"_":{"x_min":0,"x_max":500,"ha":500,"o":"m 42 -72 l 42 0 l 458 0 l 458 -72 z"},"v":{"x_min":0,"x_max":657,"ha":657,"o":"m 303 -6 l 110 393 l 85 439 q 68 470 55 479 q 42 488 9 490 l 0 491 l 0 536 l 301 536 l 301 491 l 292 490 l 273 489 q 239 487 239 470 q 239 467 242 459 l 255 424 q 256 422 270 393 l 376 171 l 486 393 q 519 458 519 474 q 519 488 493 488 l 467 490 l 458 491 l 458 536 l 657 536 l 657 491 l 647 490 q 615 488 604 482 q 593 476 580 453 l 547 394 l 347 -6 z"},"O":{"x_min":0,"x_max":810,"ha":810,"o":"m 400 -18 q 234 -18 136 84 q 39 187 39 361 q 39 538 137 639 q 235 741 405 741 q 575 741 673 639 q 771 538 771 363 q 771 184 673 83 q 574 -18 400 -18 z m 402 30 q 612 30 612 365 q 612 693 405 693 q 199 693 199 363 q 199 30 402 30 z"},"(":{"x_min":0,"x_max":327,"ha":327,"o":"m 291 -105 l 291 -150 q 172 -86 101 40 q 30 167 30 314 q 30 458 102 586 q 174 714 291 777 l 291 732 q 229 676 202 578 q 175 480 175 313 q 175 147 202 49 q 229 -49 291 -105 z"},"C":{"x_min":0,"x_max":711,"ha":711,"o":"m 666 28 q 555 -18 424 -18 q 243 -18 141 83 q 39 183 39 362 q 39 542 138 642 q 238 741 419 741 q 530 741 653 709 l 653 560 l 581 560 l 581 569 l 579 598 q 574 693 421 693 q 314 693 257 607 q 199 521 199 362 q 199 42 458 42 q 549 42 666 96 z"},"W":{"x_min":0,"x_max":955,"ha":955,"o":"m 256 -9 l 89 581 l 71 636 q 62 663 54 669 q 46 674 9 677 l 0 678 l 0 723 l 283 723 l 283 678 l 274 678 l 248 677 q 215 677 215 660 q 215 638 231 581 l 327 246 l 476 714 l 531 714 l 690 217 l 805 579 q 824 641 824 659 q 824 678 771 678 l 762 678 l 762 723 l 955 723 l 955 678 l 946 677 q 930 676 924 676 q 903 676 896 670 q 888 664 881 640 l 861 579 l 674 -9 l 626 -9 l 464 492 l 305 -9 z"},"A":{"x_min":0,"x_max":795,"ha":795,"o":"m 198 220 l 161 142 q 134 85 134 63 q 134 47 165 47 q 169 47 184 46 l 193 45 l 193 0 l 0 0 l 0 45 l 9 46 q 43 48 55 56 q 66 63 80 94 l 102 142 l 371 729 l 421 729 l 692 142 l 720 88 q 739 50 763 47 l 789 46 l 795 45 l 795 0 l 494 0 l 494 45 l 503 46 l 529 47 q 566 47 566 65 q 566 82 538 143 l 502 220 z m 220 268 l 479 268 l 348 549 z"},"f":{"x_min":0,"x_max":416,"ha":416,"o":"m 102 488 l 27 488 l 27 536 l 102 536 l 102 558 q 102 783 295 783 q 370 783 435 752 l 435 639 l 368 639 l 368 647 l 366 677 q 361 737 315 737 q 277 737 262 708 q 247 680 247 606 l 247 536 l 382 536 l 382 488 l 247 488 l 247 142 l 250 93 q 250 63 260 56 q 270 49 316 46 l 325 45 l 325 0 l 24 0 l 24 45 l 33 46 q 80 49 90 56 q 100 63 100 93 l 102 142 z"},"Q":{"x_min":0,"x_max":810,"ha":810,"o":"m 482 -11 q 444 -18 406 -18 q 235 -18 137 83 q 39 185 39 361 q 39 538 137 639 q 235 741 405 741 q 575 741 673 639 q 771 538 771 361 q 771 96 553 6 q 677 -45 896 -59 l 774 -148 q 629 -110 482 -11 z m 612 356 q 612 693 405 693 q 199 693 199 363 q 199 30 405 30 q 612 30 612 356 z"},"w":{"x_min":0,"x_max":879,"ha":879,"o":"m 236 -6 l 96 394 l 76 441 q 64 472 53 480 q 42 488 9 490 l 0 491 l 0 536 l 280 536 l 280 491 l 271 491 l 244 490 q 214 490 214 472 q 214 466 216 456 l 221 433 q 224 422 233 396 l 308 178 l 453 533 l 505 533 l 645 178 l 724 393 q 725 397 734 419 q 749 456 749 469 q 749 490 718 490 l 693 491 l 684 491 l 684 536 l 879 536 l 879 491 l 871 490 q 830 488 816 474 q 803 460 779 395 l 631 -6 l 586 -6 l 440 371 l 284 -6 z"},"-":{"x_min":0,"x_max":579,"ha":579,"o":"m 72 253 l 72 325 l 506 325 l 506 253 z"},"E":{"x_min":0,"x_max":601,"ha":601,"o":"m 572 0 l 21 0 l 21 45 l 30 46 q 77 49 87 56 q 97 63 97 93 l 99 142 l 99 582 l 97 629 q 97 660 87 667 q 78 673 30 677 l 21 678 l 21 723 l 551 723 l 551 593 l 479 593 l 478 603 q 477 627 477 632 q 477 657 470 664 q 464 671 439 673 l 405 675 l 250 675 l 250 400 l 351 400 l 398 401 q 426 401 426 426 q 426 429 427 449 l 428 458 l 479 458 l 479 301 l 428 301 l 427 310 q 426 325 426 330 q 426 356 397 356 l 351 358 l 247 358 l 247 142 l 249 99 q 251 68 259 60 q 268 52 300 52 l 344 51 l 404 51 l 460 53 q 494 53 497 80 l 500 126 l 500 136 l 572 136 z"},"s":{"x_min":0,"x_max":524,"ha":524,"o":"m 54 24 l 54 163 l 121 163 l 121 154 l 122 128 q 122 88 160 61 q 199 33 255 33 q 292 33 318 57 q 344 81 344 116 q 344 170 252 207 l 208 224 q 54 285 54 389 q 54 462 114 505 q 173 548 274 548 q 354 548 441 523 l 441 395 l 375 395 l 374 404 q 374 416 374 427 q 374 503 285 503 q 246 503 219 478 q 192 453 192 417 q 192 387 212 369 q 232 352 293 329 l 337 312 q 487 254 487 157 q 487 83 424 36 q 360 -12 263 -12 q 142 -12 54 24 z"},">":{"x_min":0,"x_max":795,"ha":795,"o":"m 108 0 l 108 81 l 524 289 l 524 290 l 108 498 l 108 578 l 687 289 z"},"l":{"x_min":0,"x_max":325,"ha":325,"o":"m 238 771 l 238 142 l 241 93 q 241 63 251 56 q 261 49 307 46 l 316 45 l 316 0 l 15 0 l 15 45 l 24 46 q 71 49 81 56 q 91 63 91 93 l 93 142 l 93 629 l 91 678 q 91 708 81 715 q 71 722 24 725 l 15 726 l 15 771 z"},"8":{"x_min":0,"x_max":624,"ha":624,"o":"m 193 385 q 86 460 86 555 q 86 637 153 689 q 219 741 324 741 q 423 741 485 697 q 546 653 546 581 q 546 484 404 409 q 579 319 579 195 q 579 100 504 41 q 429 -18 310 -18 q 190 -18 119 35 q 47 88 47 177 q 47 299 201 380 z m 362 433 q 421 496 421 571 q 421 696 316 696 q 271 696 239 665 q 207 634 207 588 q 207 518 320 456 z m 233 355 q 183 273 183 194 q 183 117 219 72 q 256 27 318 27 q 375 27 412 64 q 449 102 449 158 q 449 208 422 237 q 395 266 298 319 z"},"\\":{"x_min":0,"x_max":553,"ha":553,"o":"m 444 -145 l 369 -145 l 108 723 l 184 723 z"},"e":{"x_min":0,"x_max":562,"ha":562,"o":"m 514 21 q 418 -12 327 -12 q 190 -12 110 65 q 30 143 30 274 q 30 397 102 473 q 174 548 291 548 q 514 548 514 274 l 514 263 l 179 263 q 179 60 368 60 q 433 60 514 95 z m 182 309 l 371 309 l 371 326 q 371 423 352 463 q 332 503 284 503 q 182 503 182 309 z"},"b":{"x_min":0,"x_max":640,"ha":640,"o":"m 78 0 l 78 629 l 76 678 q 76 708 66 715 q 56 722 9 725 l 0 726 l 0 771 l 223 771 l 223 435 q 284 548 405 548 q 497 548 552 476 q 607 404 607 281 q 607 147 545 68 q 483 -12 379 -12 q 291 -12 223 54 l 202 0 z m 223 108 q 281 57 331 57 q 453 57 453 266 q 453 455 346 455 q 281 455 223 385 z"},"%":{"x_min":0,"x_max":759,"ha":759,"o":"m 22 -18 l 642 741 l 737 741 l 113 -18 z m 188 360 q 17 360 17 540 q 17 723 190 723 q 363 723 363 542 q 363 360 188 360 z m 188 406 q 253 406 253 542 q 253 676 190 676 q 126 676 126 541 q 126 406 188 406 z m 567 0 q 397 0 397 180 q 397 362 570 362 q 743 362 743 182 q 743 0 567 0 z m 568 46 q 634 46 634 183 q 634 316 570 316 q 506 316 506 181 q 506 46 568 46 z"},"m":{"x_min":0,"x_max":967,"ha":967,"o":"m 232 435 q 311 548 417 548 q 533 548 554 435 q 650 548 747 548 q 889 548 889 395 l 889 142 l 891 93 q 891 63 901 56 q 911 49 958 46 l 967 45 l 967 0 l 684 0 l 684 45 l 693 46 q 730 48 739 56 q 748 63 748 93 l 750 142 l 750 362 q 750 460 688 460 q 617 460 561 375 l 561 142 l 562 93 q 562 63 571 56 q 580 48 618 46 l 626 45 l 626 0 l 355 0 l 355 45 l 365 46 q 402 48 411 56 q 420 63 420 93 l 422 142 l 422 362 q 422 460 359 460 q 286 460 232 377 l 232 142 l 234 93 q 234 63 243 56 q 252 48 289 46 l 298 45 l 298 0 l 15 0 l 15 45 l 24 46 q 71 49 81 56 q 91 63 91 93 l 93 142 l 93 395 l 91 443 q 91 473 81 480 q 71 487 24 490 l 15 491 l 15 536 l 232 536 z"},"#":{"x_min":0,"x_max":663,"ha":663,"o":"m 107 0 l 162 211 l 20 211 l 31 271 l 177 271 l 221 452 l 66 452 l 79 512 l 236 512 l 290 723 l 352 723 l 298 512 l 439 512 l 492 723 l 555 723 l 500 512 l 642 512 l 630 452 l 486 452 l 442 271 l 595 271 l 583 211 l 427 211 l 373 0 l 311 0 l 365 211 l 224 211 l 170 0 z m 239 271 l 380 271 l 424 452 l 284 452 z"},",":{"x_min":0,"x_max":265,"ha":265,"o":"m 54 -145 l 54 -100 q 115 -100 115 -17 l 114 0 l 54 0 l 54 157 l 211 157 l 211 36 q 211 -131 54 -145 z"},"n":{"x_min":0,"x_max":654,"ha":654,"o":"m 238 435 q 304 548 421 548 q 494 548 534 504 q 575 459 575 379 l 575 142 l 578 93 q 578 63 588 56 q 598 49 645 46 l 654 45 l 654 0 l 353 0 l 353 45 l 361 46 q 408 49 418 56 q 428 63 428 93 l 431 142 l 431 363 q 431 420 417 440 q 404 460 366 460 q 300 460 238 381 l 238 142 l 241 93 q 241 63 251 56 q 261 49 307 46 l 316 45 l 316 0 l 15 0 l 15 45 l 24 46 q 71 49 81 56 q 91 63 91 93 l 93 142 l 93 395 l 91 443 q 91 473 81 480 q 71 487 24 490 l 15 491 l 15 536 l 238 536 z"},"h":{"x_min":0,"x_max":654,"ha":654,"o":"m 238 435 q 304 548 421 548 q 494 548 534 504 q 575 459 575 379 l 575 142 l 578 93 q 578 63 588 56 q 598 49 645 46 l 654 45 l 654 0 l 353 0 l 353 45 l 361 46 q 408 49 418 56 q 428 63 428 93 l 431 142 l 431 363 q 431 420 417 440 q 404 460 366 460 q 300 460 238 381 l 238 142 l 241 93 q 241 63 251 56 q 261 49 307 46 l 316 45 l 316 0 l 15 0 l 15 45 l 24 46 q 71 49 81 56 q 91 63 91 93 l 93 142 l 93 629 l 91 678 q 91 708 81 715 q 71 722 24 725 l 15 726 l 15 771 l 238 771 z"},"z":{"x_min":0,"x_max":584,"ha":584,"o":"m 49 0 l 49 51 l 362 491 l 212 491 q 166 491 151 484 q 137 478 136 456 l 134 416 l 134 407 l 67 407 l 67 536 l 522 536 l 522 491 l 211 51 l 384 51 q 434 51 448 58 q 461 64 462 87 q 463 105 464 121 l 465 129 l 531 129 l 531 0 z"},"B":{"x_min":0,"x_max":639,"ha":639,"o":"m 396 375 q 598 334 598 180 q 598 0 359 0 l 21 0 l 21 45 l 30 46 q 77 49 87 56 q 97 63 97 93 l 99 142 l 99 582 l 97 629 q 97 660 87 667 q 78 673 30 677 l 21 678 l 21 723 l 358 723 q 568 723 568 562 q 568 437 396 375 z m 244 346 l 244 141 q 244 86 257 70 q 270 54 315 54 q 374 54 409 91 q 444 128 444 189 q 444 260 397 303 q 350 346 274 346 z m 244 395 l 273 395 q 418 395 418 539 q 418 675 274 675 l 244 675 z"},"K":{"x_min":0,"x_max":747,"ha":747,"o":"m 244 348 l 244 142 l 247 93 q 247 67 258 58 q 269 48 301 46 l 310 45 l 310 0 l 21 0 l 21 45 l 30 46 q 77 49 87 56 q 97 63 97 93 l 99 142 l 99 582 l 97 629 q 97 660 87 667 q 78 673 30 677 l 21 678 l 21 723 l 310 723 l 310 678 l 301 677 q 263 674 255 667 q 246 660 246 629 l 244 582 l 244 389 l 455 582 q 490 614 501 627 l 529 660 q 533 665 533 667 q 533 677 505 677 l 484 678 l 475 678 l 475 723 l 695 723 l 695 678 l 686 677 l 661 676 q 632 674 600 644 l 529 579 l 360 423 l 605 140 l 661 81 q 690 48 719 47 l 740 46 l 749 45 l 749 0 l 400 0 l 400 45 l 409 45 l 431 46 q 470 46 470 61 q 470 71 413 142 z"},"R":{"x_min":0,"x_max":720,"ha":720,"o":"m 244 316 l 244 142 l 246 93 q 246 63 255 56 q 264 48 301 46 l 310 45 l 310 0 l 21 0 l 21 45 l 30 46 q 77 49 87 56 q 97 63 97 93 l 99 142 l 99 582 l 97 629 q 97 660 87 667 q 78 673 30 677 l 21 678 l 21 723 l 231 723 l 277 724 l 321 725 l 364 726 q 589 726 589 543 q 589 393 450 336 l 591 140 l 629 90 q 660 50 688 47 l 712 46 l 721 45 l 721 0 l 506 0 l 306 316 z m 244 365 l 271 365 q 347 365 392 410 q 437 456 437 534 q 437 675 298 675 l 244 675 z"},"T":{"x_min":0,"x_max":714,"ha":714,"o":"m 282 675 l 164 675 q 119 675 106 667 q 94 660 94 632 q 94 605 92 582 l 92 572 l 20 572 l 20 723 l 694 723 l 694 572 l 622 572 l 621 587 l 620 632 q 620 660 608 667 q 596 675 550 675 l 432 675 l 432 142 l 435 93 q 437 65 445 58 q 452 50 480 48 l 514 46 l 522 45 l 522 0 l 191 0 l 191 45 l 200 46 l 233 48 q 262 50 269 58 q 277 65 279 93 l 282 142 z"},"P":{"x_min":0,"x_max":614,"ha":614,"o":"m 244 296 l 244 142 q 244 84 252 67 q 261 50 292 48 l 325 46 l 334 45 l 334 0 l 21 0 l 21 45 l 30 46 q 77 49 87 56 q 97 63 97 93 l 99 142 l 99 582 l 97 629 q 97 660 87 667 q 78 673 30 677 l 21 678 l 21 723 l 244 723 l 288 724 l 337 725 l 376 726 q 591 726 591 534 q 591 296 289 296 z m 244 344 l 272 344 q 438 344 438 523 q 438 675 296 675 l 244 675 z"},"|":{"x_min":0,"x_max":374,"ha":374,"o":"m 150 -145 l 150 771 l 223 771 l 223 -145 z"},"t":{"x_min":0,"x_max":389,"ha":389,"o":"m 363 4 q 318 -12 274 -12 q 94 -12 94 167 l 94 488 l 27 488 l 27 536 l 94 536 l 94 626 l 238 652 l 238 536 l 357 536 l 357 488 l 238 488 l 238 163 l 238 122 q 238 45 312 45 q 335 45 363 57 z"},"M":{"x_min":0,"x_max":904,"ha":904,"o":"m 21 723 l 262 723 l 462 255 l 666 723 l 883 723 l 883 678 l 874 677 q 826 673 816 667 q 807 660 807 629 l 805 582 l 805 142 l 807 93 q 807 63 817 56 q 827 49 874 46 l 883 45 l 883 0 l 600 0 l 600 45 l 609 46 q 646 48 655 56 q 664 63 664 93 l 666 142 l 666 570 l 440 81 l 392 81 l 172 601 l 172 142 l 174 93 q 174 63 183 56 q 191 48 229 46 l 238 45 l 238 0 l 21 0 l 21 45 l 30 46 q 77 49 87 56 q 97 63 97 93 l 99 142 l 99 582 l 97 629 q 97 660 87 667 q 78 673 30 677 l 21 678 z"},"g":{"x_min":0,"x_max":599,"ha":599,"o":"m 136 19 q 80 48 80 89 q 80 142 182 190 q 62 235 62 360 q 62 446 121 497 q 181 548 280 548 q 342 548 391 529 l 590 545 l 560 468 l 454 483 q 500 428 500 363 q 500 282 442 228 q 384 173 298 173 q 281 173 250 176 l 222 181 q 189 155 189 130 q 189 100 269 100 l 351 100 q 465 100 513 71 q 561 42 561 -27 q 561 -107 484 -156 q 407 -205 281 -205 q 167 -205 95 -173 q 23 -140 23 -89 q 23 -17 136 19 z m 198 359 q 198 215 281 215 q 365 215 365 358 q 365 501 281 501 q 198 501 198 359 z m 183 6 q 163 -38 163 -63 q 163 -103 200 -131 q 238 -160 292 -160 q 350 -160 389 -129 q 428 -99 428 -55 q 428 6 317 6 z"},"j":{"x_min":0,"x_max":355,"ha":355,"o":"m 274 536 l 274 11 q 274 -205 62 -205 q 13 -205 -56 -185 l -56 -54 l 11 -54 l 11 -63 l 13 -97 q 16 -160 69 -160 q 107 -160 118 -135 q 129 -110 129 -26 l 129 395 l 127 443 q 127 473 117 480 q 107 487 60 490 l 51 491 l 51 536 z m 129 626 l 129 771 l 274 771 l 274 626 z"},"i":{"x_min":0,"x_max":325,"ha":325,"o":"m 238 536 l 238 142 l 241 93 q 241 63 251 56 q 261 49 307 46 l 316 45 l 316 0 l 15 0 l 15 45 l 24 46 q 71 49 81 56 q 91 63 91 93 l 93 142 l 93 395 l 91 443 q 91 473 81 480 q 71 487 24 490 l 15 491 l 15 536 z m 93 626 l 93 771 l 238 771 l 238 626 z"},"y":{"x_min":0,"x_max":654,"ha":654,"o":"m 101 -193 l 284 6 l 104 396 l 77 449 q 62 477 53 482 q 44 488 9 490 l 0 491 l 0 536 l 304 536 l 304 491 l 295 491 l 269 490 q 236 490 236 473 q 236 463 250 434 l 267 395 l 367 174 l 484 396 q 498 420 505 438 l 517 469 q 520 474 520 476 q 520 491 470 491 l 461 491 l 461 536 l 654 536 l 654 491 l 645 490 q 603 487 592 477 q 581 467 542 396 l 229 -193 z"},"@":{"x_min":0,"x_max":861,"ha":861,"o":"m 537 22 q 444 -18 364 -18 q 227 -18 136 68 q 44 153 44 282 q 44 463 184 602 q 323 741 504 741 q 641 741 734 653 q 828 565 828 437 q 828 315 752 230 q 676 145 567 145 q 488 145 488 199 q 488 229 515 307 l 497 307 q 392 145 306 145 q 220 145 220 256 q 220 376 301 474 q 381 572 479 572 q 507 572 553 557 q 557 556 566 553 l 629 553 l 578 298 q 572 267 572 243 q 572 200 611 200 q 674 200 728 276 q 782 351 782 439 q 782 547 701 622 q 620 696 501 696 q 337 696 214 570 q 90 443 90 277 q 90 170 166 99 q 242 27 356 27 q 432 27 522 65 z m 509 386 l 533 500 q 494 529 445 529 q 390 529 348 455 q 307 381 307 282 q 307 217 349 217 q 414 217 509 386 z"},".":{"x_min":0,"x_max":265,"ha":265,"o":"m 54 0 l 54 157 l 211 157 l 211 0 z"},"p":{"x_min":0,"x_max":652,"ha":652,"o":"m 235 54 l 235 -51 l 238 -100 q 238 -129 248 -137 q 258 -144 304 -147 l 313 -147 l 313 -193 l 12 -193 l 12 -147 l 21 -147 q 68 -144 78 -137 q 88 -130 88 -100 l 90 -51 l 90 395 l 88 443 q 88 473 78 480 q 68 487 21 490 l 12 491 l 12 536 l 235 536 l 235 435 q 296 548 417 548 q 509 548 564 476 q 619 404 619 281 q 619 147 557 68 q 495 -12 392 -12 q 303 -12 235 54 z m 235 108 q 293 57 343 57 q 465 57 465 266 q 465 455 358 455 q 293 455 235 385 z"},"X":{"x_min":0,"x_max":702,"ha":702,"o":"m 269 361 l 137 579 l 106 627 q 87 660 75 667 q 63 675 30 677 l 21 678 l 21 723 l 332 723 l 332 678 l 322 678 l 297 677 q 267 677 267 663 q 267 646 307 579 l 397 428 l 507 580 q 556 646 556 663 q 556 677 529 677 l 509 678 l 500 678 l 500 723 l 702 723 l 702 678 q 696 677 692 677 q 657 675 648 670 q 639 666 624 646 l 575 579 l 437 385 l 583 143 l 624 81 q 645 49 669 47 l 690 46 l 699 45 l 699 0 l 389 0 l 389 45 l 397 45 l 424 46 q 455 46 455 61 q 455 74 415 143 l 309 318 l 190 143 q 146 78 146 61 q 146 46 174 46 l 196 45 l 205 45 l 205 0 l 0 0 l 0 45 l 9 46 q 45 48 56 54 q 67 61 86 89 l 122 143 z"},"*":{"x_min":0,"x_max":434,"ha":434,"o":"m 251 572 l 376 646 l 409 542 l 265 529 q 265 534 265 537 q 265 554 251 572 z m 260 514 l 368 418 l 281 355 l 224 488 q 245 493 260 514 z m 209 488 l 151 355 l 65 418 l 173 514 q 187 492 209 488 z m 169 529 l 25 543 l 59 647 l 182 572 q 167 556 167 538 q 167 535 169 529 z m 194 581 l 164 723 l 271 723 l 239 581 q 228 586 217 586 q 208 586 194 581 z"},"Y":{"x_min":0,"x_max":717,"ha":717,"o":"m 281 312 l 117 577 q 86 626 82 634 q 61 673 34 675 l 8 677 l -2 678 l -2 723 l 312 723 l 312 678 l 304 678 l 279 677 q 246 677 246 661 q 246 645 288 577 l 410 375 l 536 577 q 577 644 577 659 q 577 678 530 678 l 519 678 l 519 723 l 718 723 l 718 678 l 709 677 l 688 675 q 659 673 642 643 l 599 577 l 431 313 l 431 142 l 434 93 q 434 63 444 56 q 454 49 500 46 l 509 45 l 509 0 l 202 0 l 202 45 l 211 46 q 258 49 268 56 q 278 63 278 93 l 281 142 z"},"c":{"x_min":0,"x_max":541,"ha":541,"o":"m 491 13 q 408 -12 330 -12 q 190 -12 110 65 q 30 142 30 274 q 30 402 106 475 q 182 548 315 548 q 401 548 489 524 l 489 386 l 420 386 l 419 395 l 417 431 q 412 503 321 503 q 184 503 184 280 q 184 52 366 52 q 422 52 491 80 z"},"!":{"x_min":0,"x_max":265,"ha":265,"o":"m 60 0 l 60 121 l 205 121 l 205 0 z m 110 205 l 60 578 l 60 723 l 205 723 l 205 578 l 155 205 z"},"/":{"x_min":0,"x_max":553,"ha":553,"o":"m 108 -145 l 369 723 l 444 723 l 184 -145 z"},"[":{"x_min":0,"x_max":327,"ha":327,"o":"m 66 -145 l 66 771 l 292 771 l 292 726 l 190 726 l 190 -100 l 292 -100 l 292 -145 z"},"6":{"x_min":0,"x_max":624,"ha":624,"o":"m 188 382 q 252 465 361 465 q 458 465 521 401 q 584 337 584 240 q 584 128 510 55 q 436 -18 323 -18 q 188 -18 113 78 q 38 173 38 345 q 38 527 123 634 q 208 741 352 741 q 453 741 546 712 l 546 582 l 480 582 l 479 590 q 478 615 478 624 q 478 696 368 696 q 284 696 236 619 q 188 543 188 408 z m 193 257 q 193 153 230 90 q 268 27 330 27 q 440 27 440 213 q 440 405 316 405 q 193 405 193 257 z"},"r":{"x_min":0,"x_max":462,"ha":462,"o":"m 238 383 l 238 142 q 238 84 247 67 q 255 50 286 48 l 319 46 l 329 45 l 329 0 l 15 0 l 15 45 l 24 46 q 71 49 81 56 q 91 63 91 93 l 93 142 l 93 395 l 91 443 q 91 473 81 480 q 71 487 24 490 l 15 491 l 15 536 l 238 536 l 238 435 q 304 548 409 548 q 420 548 437 544 l 437 374 l 371 374 l 370 382 l 368 405 q 366 438 362 444 q 358 451 339 451 q 276 451 238 383 z"},"2":{"x_min":0,"x_max":624,"ha":624,"o":"m 56 0 l 56 48 q 94 156 221 269 l 251 295 q 388 417 388 539 q 388 609 351 651 q 313 693 250 693 q 202 693 172 671 q 143 650 143 616 l 142 575 l 141 566 l 75 566 l 75 701 q 184 741 284 741 q 401 741 471 688 q 541 635 541 545 q 541 431 388 333 q 336 299 319 286 l 279 253 q 201 191 195 121 l 539 121 l 539 0 z"},"{":{"x_min":0,"x_max":366,"ha":366,"o":"m 58 336 l 76 336 q 146 336 146 406 q 146 418 142 438 l 133 475 l 121 526 q 107 587 107 620 q 107 684 156 727 q 205 771 277 771 l 314 771 l 314 726 q 243 717 243 647 q 243 632 246 614 l 250 594 l 256 559 q 266 508 266 471 q 266 357 158 313 q 265 267 265 156 q 265 114 255 62 l 249 27 l 245 7 q 241 -17 241 -27 q 241 -87 314 -100 l 314 -145 l 275 -145 q 202 -145 154 -103 q 106 -61 106 2 q 106 36 120 96 l 131 147 l 140 184 q 145 204 145 225 q 145 291 76 291 l 58 291 z"},"9":{"x_min":0,"x_max":624,"ha":624,"o":"m 435 340 q 372 257 262 257 q 166 257 102 321 q 39 385 39 483 q 39 595 113 668 q 187 741 300 741 q 435 741 510 645 q 586 549 586 378 q 586 196 501 89 q 416 -18 272 -18 q 170 -18 77 11 l 77 142 l 143 142 l 144 132 q 146 106 146 99 q 146 27 255 27 q 339 27 387 104 q 435 180 435 315 z m 431 466 q 431 570 393 633 q 355 696 293 696 q 184 696 184 510 q 184 318 307 318 q 431 318 431 466 z"}," ":{"x_min":0,"x_max":312,"ha":312,"o":""},"I":{"x_min":0,"x_max":350,"ha":350,"o":"m 328 0 l 21 0 l 21 45 l 30 46 q 77 49 87 56 q 97 63 97 93 l 99 142 l 99 582 l 97 629 q 97 660 87 667 q 78 673 30 677 l 21 678 l 21 723 l 328 723 l 328 678 l 319 677 q 271 673 262 667 q 252 660 252 629 l 250 582 l 250 142 l 252 93 q 252 63 262 56 q 272 49 319 46 l 328 45 z"},"H":{"x_min":0,"x_max":798,"ha":798,"o":"m 250 354 l 250 142 l 252 93 q 252 63 262 56 q 272 49 319 46 l 328 45 l 328 0 l 21 0 l 21 45 l 30 46 q 77 49 87 56 q 97 63 97 93 l 99 142 l 99 582 l 97 629 q 97 660 87 667 q 78 673 30 677 l 21 678 l 21 723 l 328 723 l 328 678 l 319 677 q 271 673 262 667 q 252 660 252 629 l 250 582 l 250 406 l 548 406 l 548 582 l 546 629 q 546 660 537 667 q 527 673 479 677 l 470 678 l 470 723 l 777 723 l 777 678 l 769 677 q 720 673 711 667 q 702 660 702 629 l 699 582 l 699 142 l 702 93 q 702 63 712 56 q 722 49 769 46 l 777 45 l 777 0 l 470 0 l 470 45 l 479 46 q 526 49 536 56 q 546 63 546 93 l 548 142 l 548 354 z"},"4":{"x_min":0,"x_max":624,"ha":624,"o":"m 369 196 l 25 196 l 25 277 l 383 732 l 489 732 l 489 298 l 574 298 l 574 196 l 489 196 l 489 142 l 492 93 q 492 63 502 56 q 512 49 559 46 l 567 45 l 567 0 l 291 0 l 291 45 l 299 46 q 346 49 356 56 q 366 63 366 93 l 369 142 z m 99 298 l 369 298 l 369 639 z"},"~":{"x_min":0,"x_max":795,"ha":795,"o":"m 108 217 q 108 374 242 374 q 292 374 359 346 l 397 331 l 442 313 l 487 295 q 541 274 567 274 q 639 274 639 357 l 639 361 l 687 361 q 687 205 554 205 q 503 205 436 232 l 398 248 l 354 265 l 308 283 q 254 304 228 304 q 157 304 157 221 l 157 217 z"},"D":{"x_min":0,"x_max":793,"ha":793,"o":"m 21 0 l 21 45 l 30 46 q 77 49 87 56 q 97 63 97 93 l 99 142 l 99 582 l 97 629 q 97 660 87 667 q 78 673 30 677 l 21 678 l 21 723 l 258 723 l 363 724 l 401 725 q 572 725 663 634 q 755 544 755 376 q 755 205 662 102 q 569 0 413 0 z m 249 675 l 249 142 q 249 82 267 66 q 286 51 357 51 q 595 51 595 375 q 595 539 529 607 q 463 675 305 675 z"},"^":{"x_min":0,"x_max":624,"ha":624,"o":"m 312 561 l 128 193 l 47 193 l 312 723 l 577 193 l 496 193 z"},"0":{"x_min":0,"x_max":624,"ha":624,"o":"m 308 -18 q 186 -18 109 88 q 32 193 32 361 q 32 531 109 636 q 187 741 312 741 q 437 741 514 636 q 592 531 592 362 q 592 190 514 86 q 437 -18 308 -18 z m 310 27 q 438 21 438 364 q 438 696 312 696 q 186 696 186 361 q 186 34 310 27 z"},"F":{"x_min":0,"x_max":584,"ha":584,"o":"m 250 340 l 250 142 l 253 93 q 255 65 262 58 q 270 50 298 48 l 331 46 l 340 45 l 340 0 l 21 0 l 21 45 l 30 46 q 77 49 87 56 q 97 63 97 93 l 99 142 l 99 582 l 97 629 q 97 660 87 667 q 78 673 30 677 l 21 678 l 21 723 l 548 723 l 548 587 l 476 587 l 476 596 q 474 619 474 628 q 474 658 461 667 q 449 675 403 675 l 250 675 l 250 382 l 351 382 l 398 383 q 426 383 426 408 q 426 411 427 431 l 428 440 l 479 440 l 479 283 l 428 283 l 427 292 q 426 307 426 312 q 426 338 397 338 l 351 340 z"},"`":{"x_min":0,"x_max":618,"ha":618,"o":"m 396 626 l 331 626 l 132 783 l 278 783 z"},"k":{"x_min":0,"x_max":654,"ha":654,"o":"m 238 259 l 238 142 l 240 93 q 240 63 249 56 q 258 48 295 46 l 304 45 l 304 0 l 15 0 l 15 45 l 24 46 q 71 49 81 56 q 91 63 91 93 l 93 142 l 93 629 l 91 678 q 91 708 81 715 q 71 722 24 725 l 15 726 l 15 771 l 238 771 l 238 289 l 262 289 l 380 400 q 446 461 446 479 q 446 490 424 490 l 404 491 l 395 491 l 395 536 l 605 536 l 605 491 l 597 490 q 557 488 544 483 q 532 478 504 452 l 439 394 l 368 326 l 516 140 l 562 87 q 585 62 598 55 q 611 48 645 46 l 654 45 l 654 0 l 440 0 l 260 259 z"},"u":{"x_min":0,"x_max":654,"ha":654,"o":"m 416 0 l 416 101 q 350 -12 232 -12 q 160 -12 119 33 q 78 78 78 157 l 78 395 l 76 443 q 76 473 66 480 q 56 487 9 490 l 0 491 l 0 536 l 223 536 l 223 173 q 223 75 290 75 q 358 75 416 154 l 416 395 l 413 443 q 413 473 403 480 q 393 487 346 490 l 337 491 l 337 536 l 560 536 l 560 142 l 563 93 q 563 63 573 56 q 583 49 629 46 l 639 45 l 639 0 z"},"]":{"x_min":0,"x_max":327,"ha":327,"o":"m 261 771 l 261 -145 l 35 -145 l 35 -100 l 137 -100 l 137 726 l 35 726 l 35 771 z"},"U":{"x_min":0,"x_max":747,"ha":747,"o":"m 9 723 l 316 723 l 316 678 l 308 677 q 260 673 251 667 q 242 660 242 629 l 239 582 l 239 269 q 239 139 277 84 q 314 29 405 29 q 501 29 545 87 q 588 145 588 273 l 588 582 l 586 629 q 586 660 576 667 q 567 673 519 677 l 510 678 l 510 723 l 737 723 l 737 678 l 729 677 q 682 674 672 667 q 663 660 663 629 l 661 582 l 661 285 q 661 128 594 55 q 526 -18 383 -18 q 87 -18 87 275 l 87 578 l 85 626 q 85 657 75 664 q 65 671 19 674 l 9 675 z"},"o":{"x_min":0,"x_max":618,"ha":618,"o":"m 305 -12 q 179 -12 104 63 q 30 139 30 268 q 30 398 105 473 q 179 548 309 548 q 438 548 513 473 q 587 398 587 269 q 587 137 513 62 q 438 -12 305 -12 z m 307 39 q 428 39 428 270 q 428 497 309 497 q 190 497 190 268 q 190 39 307 39 z"},"N":{"x_min":0,"x_max":788,"ha":788,"o":"m 573 -10 l 171 537 l 171 142 l 174 93 q 174 63 184 56 q 194 49 241 46 l 250 45 l 250 0 l 21 0 l 21 45 l 31 46 q 77 49 87 56 q 97 63 97 93 l 100 142 l 100 582 l 97 629 q 97 660 88 667 q 79 673 31 677 l 21 678 l 21 723 l 203 723 l 602 177 l 602 582 l 599 629 q 599 660 590 667 q 581 673 533 677 l 523 678 l 523 723 l 751 723 l 751 678 l 742 677 q 695 673 686 667 q 676 660 676 629 l 673 582 l 673 -10 z"},"+":{"x_min":0,"x_max":795,"ha":795,"o":"m 361 0 l 361 253 l 108 253 l 108 325 l 361 325 l 361 578 l 434 578 l 434 325 l 687 325 l 687 253 l 434 253 l 434 0 z"},"G":{"x_min":0,"x_max":753,"ha":753,"o":"m 659 15 q 509 -18 415 -18 q 241 -18 140 84 q 39 186 39 362 q 39 543 138 642 q 238 741 421 741 q 535 741 658 709 l 658 566 l 586 566 l 586 575 q 586 635 570 650 q 523 693 421 693 q 199 693 199 362 q 199 31 436 31 q 471 31 508 43 l 508 177 l 506 225 q 506 255 496 262 q 486 270 439 272 l 430 273 l 430 318 l 737 318 l 737 273 l 728 272 q 681 270 671 262 q 662 255 662 225 l 659 177 z"},"q":{"x_min":0,"x_max":640,"ha":640,"o":"m 417 101 q 357 -12 236 -12 q 143 -12 88 60 q 33 132 33 255 q 33 389 95 469 q 157 548 261 548 q 351 548 417 482 l 417 536 l 562 536 l 562 -51 l 564 -100 q 564 -130 574 -137 q 584 -144 631 -147 l 640 -147 l 640 -193 l 339 -193 l 339 -147 l 348 -147 q 395 -144 405 -137 q 415 -130 415 -100 l 417 -51 z m 417 425 q 359 476 309 476 q 187 476 187 267 q 187 78 294 78 q 359 78 417 148 z"},"d":{"x_min":0,"x_max":652,"ha":652,"o":"m 417 0 l 417 101 q 357 -12 236 -12 q 143 -12 88 60 q 33 132 33 255 q 33 389 95 469 q 157 548 261 548 q 351 548 417 482 l 417 629 l 415 678 q 415 708 405 715 q 395 722 348 725 l 339 726 l 339 771 l 562 771 l 562 142 l 564 93 q 564 63 574 56 q 584 49 631 46 l 640 45 l 640 0 z m 417 428 q 359 479 309 479 q 187 479 187 271 q 187 81 294 81 q 359 81 417 151 z"},"1":{"x_min":0,"x_max":624,"ha":624,"o":"m 391 729 l 391 142 q 391 80 400 66 q 410 52 455 50 l 508 46 l 517 45 l 517 0 l 120 0 l 120 45 l 129 46 l 184 51 q 220 53 228 58 q 236 63 240 85 q 246 116 246 142 l 246 545 l 243 594 q 243 629 223 629 q 208 629 156 620 l 120 613 l 120 661 z"},"5":{"x_min":0,"x_max":624,"ha":624,"o":"m 104 5 l 104 139 l 170 139 l 171 129 l 173 100 q 178 27 261 27 q 321 27 356 72 q 391 117 391 196 q 391 387 169 387 q 147 387 118 384 l 118 723 l 530 723 l 530 611 l 177 611 l 163 433 l 210 434 q 544 434 544 205 q 544 101 468 42 q 393 -18 261 -18 q 196 -18 104 5 z"}}}
